<svg width="35" height="37" viewBox="0 0 35 37" fill="none" xmlns="http://www.w3.org/2000/svg">
<path d="M3.76481 36.1584C2.83953 36.1584 2.04715 35.8224 1.38768 35.1503C0.728204 34.4782 0.399028 33.6693 0.400149 32.7236V8.68032C0.400149 7.73576 0.729886 6.92688 1.38936 6.25367C2.04883 5.58045 2.84065 5.24442 3.76481 5.24556H18.7796L15.415 8.68032H3.76481V32.7236H27.3174V20.7879L30.6821 17.3531V32.7236C30.6821 33.6682 30.3524 34.4771 29.6929 35.1503C29.0334 35.8235 28.2416 36.1595 27.3174 36.1584H3.76481ZM22.5649 6.23306L24.9622 8.63739L13.8588 19.9721V22.4194H16.2141L27.3595 11.0417L29.7568 13.4461L17.644 25.8541H10.4941V18.5553L22.5649 6.23306ZM29.7568 13.4461L22.5649 6.23306L26.7707 1.93961C27.4436 1.25266 28.25 0.90918 29.1899 0.90918C30.1297 0.90918 30.9216 1.25266 31.5653 1.93961L33.9206 4.38687C34.5655 5.0452 34.8879 5.84665 34.8879 6.79121C34.8879 7.73576 34.5655 8.53721 33.9206 9.19554L29.7568 13.4461Z" fill="black"/>
</svg>
