<svg width="53" height="37" viewBox="0 0 53 37" fill="none" xmlns="http://www.w3.org/2000/svg">
<path d="M44.3462 24.9031L35.9254 15.0024L43.405 10.7351C44.1358 10.3183 44.3902 9.3878 43.9734 8.65706C43.5565 7.92622 42.6258 7.6717 41.8952 8.08861C41.2698 8.4454 27.0963 16.5315 26.4001 16.9287C25.7006 16.5296 11.5237 8.44154 10.9051 8.08861C10.1742 7.6718 9.244 7.92601 8.82689 8.65706C8.41007 9.3878 8.66439 10.3182 9.39533 10.7351L16.8749 15.0024L8.45395 24.9031C7.90886 25.5441 7.98646 26.5053 8.62742 27.0505C9.26828 27.5958 10.2301 27.5178 10.7749 26.8771L19.5678 16.5388L25.6452 20.0061C26.1131 20.273 26.6873 20.2729 27.155 20.0061L33.2324 16.5388L42.0253 26.8771C42.5705 27.5182 43.5323 27.5954 44.1728 27.0505C44.8137 26.5055 44.8913 25.5441 44.3462 24.9031Z" fill="#8C8C8C"/>
<path d="M47.8298 0.90918H4.97046C2.45039 0.90918 0.400146 2.95942 0.400146 5.47949V31.8857C0.400146 34.4058 2.45039 36.4561 4.97046 36.4561H47.8298C50.3499 36.4561 52.4001 34.4058 52.4001 31.8857V5.47949C52.4001 2.95942 50.3499 0.90918 47.8298 0.90918ZM49.3533 31.8857C49.3533 32.7258 48.6699 33.4092 47.8298 33.4092H4.97046C4.13044 33.4092 3.44702 32.7258 3.44702 31.8857V5.47949C3.44702 4.63947 4.13044 3.95605 4.97046 3.95605H47.8298C48.6699 3.95605 49.3533 4.63947 49.3533 5.47949V31.8857Z" fill="#8C8C8C"/>
</svg>
