<svg width="39" height="49" viewBox="0 0 39 49" fill="none" xmlns="http://www.w3.org/2000/svg">
<path d="M19.5452 37.0515C18.3089 37.0515 17.1233 36.5676 16.2492 35.7062C15.375 34.8449 14.8839 33.6766 14.8839 32.4585C14.8839 29.9093 16.9582 27.8654 19.5452 27.8654C20.7814 27.8654 21.967 28.3493 22.8412 29.2107C23.7153 30.072 24.2064 31.2403 24.2064 32.4585C24.2064 33.6766 23.7153 34.8449 22.8412 35.7062C21.967 36.5676 20.7814 37.0515 19.5452 37.0515ZM33.5289 43.9411V20.9758H5.5614V43.9411H33.5289ZM33.5289 16.3828C34.7652 16.3828 35.9508 16.8667 36.8249 17.7281C37.6991 18.5894 38.1902 19.7577 38.1902 20.9758V43.9411C38.1902 45.1592 37.6991 46.3275 36.8249 47.1889C35.9508 48.0502 34.7652 48.5341 33.5289 48.5341H5.5614C4.32516 48.5341 3.13955 48.0502 2.2654 47.1889C1.39124 46.3275 0.900146 45.1592 0.900146 43.9411V20.9758C0.900146 18.4267 2.9744 16.3828 5.5614 16.3828H7.89203V11.7897C7.89203 8.74437 9.11977 5.82372 11.3052 3.67031C13.4905 1.5169 16.4546 0.307129 19.5452 0.307129C21.0755 0.307129 22.5908 0.604136 24.0046 1.18119C25.4185 1.75825 26.7031 2.60405 27.7852 3.67031C28.8673 4.73657 29.7256 6.0024 30.3113 7.39554C30.8969 8.78867 31.1983 10.2818 31.1983 11.7897V16.3828H33.5289ZM19.5452 4.90018C17.6908 4.90018 15.9124 5.62604 14.6012 6.91808C13.2899 8.21013 12.5533 9.96252 12.5533 11.7897V16.3828H26.537V11.7897C26.537 9.96252 25.8004 8.21013 24.4892 6.91808C23.1779 5.62604 21.3995 4.90018 19.5452 4.90018Z" fill="#8C8C8C"/>
</svg>
