<svg width="15" height="15" viewBox="0 0 15 15" fill="none" xmlns="http://www.w3.org/2000/svg">
<path d="M1.66371 14.7495C1.27655 14.7495 0.945001 14.6089 0.669063 14.3277C0.393125 14.0465 0.255391 13.708 0.255861 13.3123V3.2521C0.255861 2.85688 0.393829 2.51842 0.669767 2.23673C0.945705 1.95505 1.27702 1.81444 1.66371 1.81492H7.94622L6.53837 3.2521H1.66371V13.3123H11.5186V8.31814L12.9265 6.88097V13.3123C12.9265 13.7076 12.7885 14.046 12.5126 14.3277C12.2366 14.6094 11.9053 14.75 11.5186 14.7495H1.66371ZM9.53004 2.22811L10.5331 3.23413L5.88724 7.97681V9.0008H6.87274L11.5362 4.24016L12.5393 5.24618L7.47107 10.438H4.4794V7.38398L9.53004 2.22811ZM12.5393 5.24618L9.53004 2.22811L11.2899 0.431641C11.5714 0.144206 11.9088 0.000488281 12.3021 0.000488281C12.6954 0.000488281 13.0267 0.144206 13.296 0.431641L14.2815 1.45563C14.5514 1.73109 14.6863 2.06643 14.6863 2.46165C14.6863 2.85688 14.5514 3.19222 14.2815 3.46768L12.5393 5.24618Z" fill="#8C8C8C"/>
</svg>
