<svg width="21" height="37" viewBox="0 0 21 37" fill="none" xmlns="http://www.w3.org/2000/svg">
<path d="M17.3197 36.2134H4.08061C2.02414 36.2134 0.400146 34.5982 0.400146 32.5329V4.58964C0.400146 2.53317 2.01531 0.90918 4.08061 0.90918H17.3197C19.3761 0.90918 21.0001 2.52435 21.0001 4.58964V32.5417C21.0001 34.4482 19.3761 36.2134 17.3197 36.2134ZM4.08061 2.38313C2.90674 2.38313 1.8741 3.41578 1.8741 4.58964V32.5417C1.8741 33.7156 2.90674 34.7482 4.08061 34.7482H17.3197C18.4935 34.7482 19.5262 33.7156 19.5262 32.5417V4.58964C19.5262 3.41578 18.4935 2.38313 17.3197 2.38313H4.08061Z" fill="#8C8C8C"/>
<path d="M20.2587 8.26151H1.1415C0.700195 8.26151 0.408936 7.97025 0.408936 7.52895C0.408936 7.08765 0.700195 6.79639 1.1415 6.79639H20.2675C20.7088 6.79639 21.0001 7.08765 21.0001 7.52895C21.0001 7.82021 20.7 8.26151 20.2587 8.26151Z" fill="#8C8C8C"/>
<path d="M20.2587 30.3264H1.1415C0.700195 30.3264 0.408936 30.0352 0.408936 29.5939C0.408936 29.1526 0.700195 28.8613 1.1415 28.8613H20.2675C20.7088 28.8613 21.0001 29.1526 21.0001 29.5939C21.0001 30.0352 20.7 30.3264 20.2587 30.3264Z" fill="#8C8C8C"/>
<path d="M11.4327 5.32206H9.95876C9.51746 5.32206 9.2262 5.0308 9.2262 4.5895C9.2262 4.14819 9.51746 3.85693 9.95876 3.85693H11.4327C11.874 3.85693 12.1653 4.14819 12.1653 4.5895C12.1741 4.88075 11.874 5.32206 11.4327 5.32206Z" fill="#8C8C8C"/>
<path d="M15.8457 5.32206C15.4044 5.32206 15.1132 5.0308 15.1132 4.5895C15.1132 4.14819 15.4044 3.85693 15.8457 3.85693C16.287 3.85693 16.5783 4.14819 16.5783 4.5895C16.5871 4.88075 16.287 5.32206 15.8457 5.32206Z" fill="#8C8C8C"/>
<path d="M7.01966 33.2742H4.08058C3.63928 33.2742 3.34802 32.9829 3.34802 32.5416C3.34802 32.1003 3.63928 31.8091 4.08058 31.8091H7.01966C7.46096 31.8091 7.75222 32.1003 7.75222 32.5416C7.76105 32.9741 7.46096 33.2742 7.01966 33.2742Z" fill="#8C8C8C"/>
<path d="M17.3197 33.2742H14.3806C13.9393 33.2742 13.6481 32.9829 13.6481 32.5416C13.6481 32.1003 13.9393 31.8091 14.3806 31.8091H17.3197C17.761 31.8091 18.0523 32.1003 18.0523 32.5416C18.0523 32.9741 17.761 33.2742 17.3197 33.2742Z" fill="#8C8C8C"/>
</svg>
