<svg width="28" height="30" viewBox="0 0 28 30" fill="none" xmlns="http://www.w3.org/2000/svg">
<path d="M7.55852 29.7676C5.64611 29.7676 3.85498 28.9467 2.56229 27.6377C0.0552925 25.0997 -0.64282 20.6699 2.87141 17.1128L17.2892 2.51457C18.7505 1.03552 20.6097 0.463125 22.389 0.946775C24.1387 1.42007 25.5704 2.87102 26.0393 4.64145C26.5155 6.44589 25.952 8.32872 24.4922 9.80777L10.703 23.77C9.91613 24.5672 9.02574 25.0391 8.13239 25.1337C7.24644 25.2284 6.4019 24.9414 5.81028 24.3424C4.73945 23.2538 4.58563 21.2113 6.36936 19.4068L16.0542 9.60071C16.4521 9.19841 17.0969 9.19841 17.4948 9.60071C17.8927 10.003 17.8927 10.6567 17.4948 11.0591L7.80848 20.8666C6.97134 21.7127 6.89443 22.5217 7.25088 22.8841C7.40766 23.0409 7.64431 23.1133 7.91793 23.0823C8.3365 23.0394 8.81424 22.7628 9.26239 22.3117L23.0516 8.35091C23.9982 7.39248 24.3606 6.26545 24.0721 5.17834C23.928 4.64674 23.6489 4.16138 23.262 3.76932C22.8751 3.37726 22.3936 3.09177 21.8639 2.94054C20.7901 2.64916 19.6749 3.01745 18.7283 3.97587L4.31052 18.5741C1.62457 21.2941 2.26795 24.4252 4.0014 26.1809C5.73633 27.9365 8.82607 28.5903 11.5135 25.8673L25.9313 11.2691C26.0253 11.1735 26.1374 11.0975 26.2611 11.0457C26.3848 10.9939 26.5175 10.9672 26.6516 10.9672C26.7857 10.9672 26.9184 10.9939 27.0421 11.0457C27.1658 11.0975 27.2779 11.1735 27.3719 11.2691C27.5633 11.4638 27.6706 11.7259 27.6706 11.999C27.6706 12.272 27.5633 12.5342 27.3719 12.7289L12.9541 27.3271C11.2547 29.0458 9.35113 29.7676 7.55852 29.7676Z" fill="#908F8F"/>
</svg>
