<svg width="34" height="29" viewBox="0 0 34 29" fill="black" xmlns="http://www.w3.org/2000/svg">
<path d="M3.34026 28.0714C2.70464 28.3151 2.1008 28.2615 1.52874 27.9106C0.956684 27.5596 0.670654 27.0497 0.670654 26.3808V19.5725C0.670654 19.1461 0.797779 18.7653 1.05203 18.4302C1.30628 18.0951 1.65587 17.8819 2.1008 17.7905L15.9256 14.5006L2.1008 11.2107C1.65587 11.1193 1.30628 10.9061 1.05203 10.571C0.797779 10.2359 0.670654 9.85516 0.670654 9.4287V2.62045C0.670654 1.95029 0.956684 1.43975 1.52874 1.08883C2.1008 0.737904 2.70464 0.6849 3.34026 0.929814L32.7059 12.81C33.5005 13.1451 33.8977 13.7086 33.8977 14.5006C33.8977 15.2926 33.5005 15.8562 32.7059 16.1912L3.34026 28.0714Z" fill="#918F8F"/>
</svg>
