<svg width="78" height="73" viewBox="0 0 78 73" fill="none" xmlns="http://www.w3.org/2000/svg">
<path d="M39.2023 20.6789C39.849 20.6789 40.4552 20.7711 41.021 20.9557C41.5868 21.1402 42.1122 21.4572 42.5971 21.9066L60.0561 37.9788C60.9452 38.7973 61.3897 39.839 61.3897 41.104C61.3897 42.3689 60.9452 43.4106 60.0561 44.2291C59.167 45.0476 58.0144 45.4747 56.5982 45.5104C55.1821 45.5461 54.0311 45.1562 53.1453 44.3407L44.0521 35.9698L44.0521 67.891C44.0521 69.1559 43.5865 70.217 42.6553 71.0741C41.7242 71.9313 40.5732 72.3584 39.2024 72.3555C37.8283 72.3555 36.6757 71.9269 35.7445 71.0697C34.8134 70.2125 34.3494 69.1529 34.3526 67.891L34.3526 35.9698L25.2594 44.3407C24.3703 45.1592 23.2177 45.5506 21.8016 45.5149C20.3855 45.4792 19.2345 45.0506 18.3486 44.2291C17.4595 43.4106 17.0149 42.3689 17.0149 41.104C17.0149 39.839 17.4595 38.7973 18.3486 37.9788L35.8076 21.9066C36.2925 21.4602 36.8179 21.1432 37.3837 20.9557C37.9495 20.7682 38.5557 20.6759 39.2023 20.6789ZM68.3006 0.923471C70.9679 0.92347 73.2521 1.79851 75.1532 3.54859C77.0543 5.29868 78.0032 7.39997 78 9.85247L78 18.7815C78 20.0464 77.5344 21.1075 76.6033 21.9647C75.6721 22.8218 74.5211 23.2489 73.1503 23.246C71.7762 23.246 70.6236 22.8174 69.6924 21.9602C68.7613 21.103 68.2973 20.0434 68.3006 18.7815L68.3006 9.85247L10.1041 9.85247L10.1041 18.7815C10.1041 20.0464 9.63854 21.1075 8.7074 21.9647C7.77626 22.8218 6.62526 23.2489 5.25441 23.246C3.88033 23.246 2.72772 22.8174 1.79657 21.9602C0.865429 21.103 0.401471 20.0434 0.404705 18.7815L0.404705 9.85248C0.404705 7.397 1.35524 5.29422 3.25633 3.54414C5.15741 1.79405 7.44001 0.920502 10.1041 0.923477L68.3006 0.923471Z" fill="white"/>
</svg>
