<svg width="32" height="34" viewBox="0 0 32 34" fill="none" xmlns="http://www.w3.org/2000/svg">
<path d="M19.5721 16.9423L30.6452 5.40483C31.6518 4.35597 31.6518 2.63043 30.6452 1.58157C29.6385 0.532707 27.9824 0.532707 26.9758 1.58157L15.9027 13.119L4.82969 1.58157C3.82305 0.532707 2.16696 0.532707 1.16032 1.58157C0.656995 2.106 0.397217 2.7996 0.397217 3.4932C0.397217 4.1868 0.656995 4.8804 1.16032 5.40483L12.2334 16.9423L1.16032 28.4797C0.656995 29.0042 0.397217 29.6978 0.397217 30.3914C0.397217 31.085 0.656995 31.7786 1.16032 32.303C2.16696 33.3519 3.82305 33.3519 4.82969 32.303L15.9027 20.7655L26.9758 32.303C27.9824 33.3519 29.6385 33.3519 30.6452 32.303C31.6518 31.2541 31.6518 29.5286 30.6452 28.4797L19.5721 16.9423Z" fill="gray"/>
</svg>
